<svg xmlns="http://www.w3.org/2000/svg" viewBox="0 0 196 309">
<style>
    .animated-fill {
      fill: #FFD700;
      animation: fillPulse 3s ease-in-out infinite;
    }

    @keyframes fillPulse {
      0%, 100% {
        fill: #FFD700;
      }
      50% {
        fill: #6a1b2c;
      }
    }
  </style>
  <g class="animated-fill">
  <path d="M 85,0 84,1 80,1 79,2 76,2 75,3 74,3 72,5 71,5 70,6 69,6 67,8 66,8 65,9 65,10 64,11 63,11 63,12 62,13 62,14 60,16 60,19 58,21 58,22 59,23 58,24 57,24 57,39 56,40 56,41 55,42 55,45 54,46 54,49 53,50 52,50 52,51 46,57 45,57 42,60 41,60 38,63 37,63 35,65 35,66 34,67 33,67 33,68 32,69 32,71 30,73 30,74 29,75 29,93 30,94 30,96 32,98 32,100 33,101 33,103 35,105 35,110 34,111 33,111 32,112 32,113 31,114 30,114 27,117 27,119 28,120 30,120 31,121 37,121 38,120 40,120 42,118 43,118 43,117 44,116 45,116 45,114 46,113 46,108 47,107 48,107 48,100 49,99 49,97 51,95 51,94 55,90 56,90 58,88 60,88 61,89 62,89 63,90 63,108 62,109 62,114 60,116 60,118 59,119 59,121 58,122 58,123 57,124 57,128 55,130 55,132 54,133 54,136 52,138 52,141 51,142 51,144 50,145 49,145 49,148 47,150 47,152 46,153 46,155 44,157 44,159 43,160 43,163 42,164 41,164 41,167 40,168 40,171 39,172 38,172 38,173 37,174 37,175 36,176 36,177 35,178 35,180 33,182 33,184 32,185 32,187 30,189 30,191 29,192 29,195 28,196 27,196 27,198 26,199 25,199 25,202 24,203 24,204 23,205 22,205 22,208 21,209 21,211 19,213 19,216 16,219 16,222 15,223 14,223 14,225 13,226 13,228 11,230 11,231 10,232 10,234 8,236 8,237 6,239 6,241 5,242 5,244 3,246 3,247 2,248 2,251 1,252 0,252 0,262 2,260 2,259 4,257 4,256 5,255 5,254 7,252 7,251 8,250 8,249 10,247 10,246 11,245 12,245 12,244 13,243 13,241 14,240 15,240 15,238 16,237 16,236 18,234 18,233 19,232 19,230 21,228 21,227 23,225 23,224 24,223 24,221 25,220 26,220 26,218 27,217 27,215 28,214 29,214 29,213 31,211 31,210 32,209 32,207 34,205 34,203 35,202 35,200 37,198 37,197 38,196 38,195 40,193 40,191 42,189 42,188 43,187 43,185 44,184 45,184 45,182 46,181 46,178 47,177 48,177 48,175 49,174 49,172 50,171 51,171 51,169 53,167 53,165 54,164 54,162 56,160 56,159 57,158 57,155 58,154 59,154 59,152 60,151 60,149 62,147 62,145 64,143 64,141 65,140 65,139 67,137 67,134 68,133 68,129 69,128 70,128 70,127 71,126 72,126 73,127 73,132 74,133 74,137 75,137 76,138 76,145 77,146 77,149 78,150 78,151 79,152 79,159 76,162 76,163 73,166 73,167 72,168 71,168 71,169 70,170 70,171 68,173 68,174 65,177 65,179 63,181 63,182 62,183 62,184 61,185 60,185 60,186 59,187 59,189 58,190 57,190 57,192 55,194 55,195 54,196 54,198 52,200 52,201 51,202 51,204 50,205 49,205 49,207 47,209 47,211 46,212 46,213 44,215 44,216 43,217 43,220 42,221 41,221 41,223 40,224 40,226 39,227 38,227 38,229 36,231 36,233 35,234 35,236 33,238 33,240 32,241 32,243 30,245 30,247 29,248 29,251 28,252 27,252 27,255 25,257 25,260 24,261 24,264 23,265 22,265 22,268 21,269 21,272 19,274 19,277 18,278 18,279 17,280 17,282 16,283 16,286 17,286 18,287 19,287 20,288 25,288 26,289 29,289 30,290 33,290 34,291 37,291 38,292 41,292 42,293 45,293 46,294 48,294 49,295 51,295 52,296 53,296 54,297 56,297 57,298 58,298 59,299 60,299 61,300 63,300 64,301 66,301 67,302 69,302 70,303 71,303 72,304 74,304 75,305 78,305 79,306 83,306 84,307 94,307 95,308 136,308 137,307 145,307 146,306 150,306 151,305 154,305 155,304 157,304 158,303 161,303 162,302 163,302 164,301 166,301 167,300 170,300 171,299 173,299 174,298 175,298 176,297 177,297 178,296 179,296 181,294 183,294 185,292 185,291 184,290 184,289 183,288 184,287 183,286 183,285 182,284 182,282 181,282 180,281 180,278 179,277 179,274 177,272 177,270 176,269 176,268 174,266 174,263 172,261 172,259 171,258 171,256 169,254 169,251 168,250 168,248 166,246 166,243 164,241 164,240 163,239 163,237 161,235 161,233 160,232 160,230 158,228 158,226 157,225 157,223 155,221 155,218 153,216 153,214 152,213 152,212 150,210 150,209 149,208 149,206 147,204 147,202 146,201 146,200 144,198 144,197 142,195 142,193 141,192 141,190 139,188 139,186 138,185 138,184 136,182 136,181 135,180 135,179 133,177 133,175 132,175 131,174 131,173 130,172 130,170 129,170 128,169 128,167 127,166 127,165 126,165 125,164 125,163 124,162 124,151 125,150 125,142 126,141 127,141 129,143 129,144 131,146 131,149 132,149 133,150 133,153 134,154 134,156 136,158 136,160 137,161 137,163 139,165 139,167 140,167 141,168 141,170 142,171 142,173 144,175 144,177 145,178 145,180 147,182 147,184 148,185 148,187 150,189 150,190 151,190 152,191 152,193 153,194 153,196 155,198 155,200 156,201 156,203 158,205 158,206 159,207 159,208 160,209 160,210 161,211 161,213 162,213 163,214 163,216 164,217 164,219 165,219 166,220 166,222 167,223 167,225 169,227 169,229 170,230 170,231 172,233 172,235 174,237 174,238 175,239 175,241 177,243 177,245 178,246 178,247 179,247 180,248 180,250 182,252 182,253 183,254 183,256 185,258 185,259 186,260 186,262 188,264 188,265 189,266 189,268 191,270 192,270 193,271 193,273 194,274 194,276 195,276 195,265 194,264 194,263 193,262 193,260 192,260 191,259 191,256 190,255 190,253 189,253 188,252 188,249 187,248 187,247 186,246 186,245 185,244 185,242 184,241 184,239 182,237 182,235 181,235 180,234 180,231 179,230 179,228 178,228 177,227 177,223 176,222 176,221 174,219 174,217 172,215 172,213 171,212 171,209 170,209 169,208 169,205 168,204 168,202 166,200 166,198 165,197 165,195 164,194 164,193 163,192 163,190 162,190 161,189 161,187 160,186 160,183 158,181 158,178 157,177 157,174 156,174 155,173 155,169 154,168 154,166 153,165 153,164 152,163 152,161 151,161 150,160 150,156 149,155 149,152 147,150 147,146 146,145 146,143 144,141 144,137 142,135 142,132 141,131 141,129 139,127 139,123 138,122 138,119 136,117 136,112 135,111 135,108 133,106 133,99 131,97 131,93 130,92 130,90 129,90 128,89 128,88 127,87 126,87 125,86 125,85 122,82 121,82 120,81 120,80 119,79 119,69 120,68 120,65 122,63 122,61 124,59 124,35 125,34 125,20 124,19 124,18 122,16 122,15 121,15 120,14 120,13 119,13 117,11 116,11 114,9 113,9 112,8 111,8 110,7 109,7 108,6 107,6 105,4 104,4 103,3 102,3 101,2 99,2 98,1 95,1 94,0 Z" />
</g>
</svg>